HIERARCHY
ROOT Hips
{
	OFFSET 0.000000 88.474243 0.000000
	CHANNELS 6 Xposition Yposition Zposition Zrotation Yrotation Xrotation 
	JOINT Hips_Spine
	{
		OFFSET 0.000000 0.000000 0.000000
		CHANNELS 3 Zrotation Yrotation Xrotation
		JOINT Spine
		{
			OFFSET 0.005100 8.711998 -0.691000
			CHANNELS 3 Zrotation Yrotation Xrotation
			JOINT Spine1
			{
				OFFSET -0.009200 8.660301 -1.275000
				CHANNELS 3 Zrotation Yrotation Xrotation
				JOINT Spine2
				{
					OFFSET 0.006300 9.852501 -1.857000
					CHANNELS 3 Zrotation Yrotation Xrotation
					JOINT Spine2_Neck
					{
						OFFSET 0.000000 0.000000 0.000000
						CHANNELS 3 Zrotation Yrotation Xrotation
						JOINT Neck
						{
							OFFSET 0.016300 11.420799 -0.263300
							CHANNELS 3 Zrotation Yrotation Xrotation
							End Site #name: Head
							{
								OFFSET -0.019200 9.262405 2.362500
							}
						}
					}
					JOINT Spine2_LeftShoulder
					{
						OFFSET 0.000000 0.000000 0.000000
						CHANNELS 3 Zrotation Yrotation Xrotation
						JOINT LeftShoulder
						{
							OFFSET 5.616900 6.732201 -0.345700
							CHANNELS 3 Zrotation Yrotation Xrotation
							JOINT LeftArm
							{
								OFFSET 10.664888 -0.183372 -2.440700
								CHANNELS 3 Zrotation Yrotation Xrotation
								JOINT LeftForeArm
								{
									OFFSET 27.459126 0.000000 0.000000
									CHANNELS 3 Zrotation Yrotation Xrotation
									End Site #name: LeftHand
									{
										OFFSET 21.306858 0.000000 0.000000
									}
								}
							}
						}
					}
					JOINT Spine2_RightShoulder
					{
						OFFSET 0.000000 0.000000 0.000000
						CHANNELS 3 Zrotation Yrotation Xrotation
						JOINT RightShoulder
						{
							OFFSET -5.580300 6.737503 -0.344400
							CHANNELS 3 Zrotation Yrotation Xrotation
							JOINT RightArm
							{
								OFFSET -10.679335 -0.188484 -2.383900
								CHANNELS 3 Zrotation Yrotation Xrotation
								JOINT RightForeArm
								{
									OFFSET -27.503529 0.000000 0.000000
									CHANNELS 3 Zrotation Yrotation Xrotation
									End Site #name: RightHand
									{
										OFFSET -21.306808 0.000000 0.000000
									}
								}
							}
						}
					}
				}
			}
		}
	}
	JOINT Hips_LeftUpLeg
	{
		OFFSET 0.000000 0.000000 0.000000
		CHANNELS 3 Zrotation Yrotation Xrotation
		JOINT LeftUpLeg
		{
			OFFSET 6.857700 -6.739601 0.312100
			CHANNELS 3 Zrotation Yrotation Xrotation
			JOINT LeftLeg
			{
				OFFSET -0.367590 -34.731552 -4.572400
				CHANNELS 3 Zrotation Yrotation Xrotation
				End Site #name: LeftFoot
				{
					OFFSET 0.367590 -34.656704 -6.067400
				}
			}
		}
	}
	JOINT Hips_RightUpLeg
	{
		OFFSET 0.000000 0.000000 0.000000
		CHANNELS 3 Zrotation Yrotation Xrotation
		JOINT RightUpLeg
		{
			OFFSET -6.876100 -6.733299 0.301000
			CHANNELS 3 Zrotation Yrotation Xrotation
			JOINT RightLeg
			{
				OFFSET 0.347353 -34.795158 -4.515900
				CHANNELS 3 Zrotation Yrotation Xrotation
				End Site #name: RightFoot
				{
					OFFSET -0.347353 -34.589367 -6.070300
				}
			}
		}
	}
}
MOTION
Frames: 6
Frame Time: 0.041667
0.975747 -0.984075 -1.901072 -8.811642 63.356384 -3.096208 0.000000 -0.000000 0.000000 6.895321 -14.139414 -3.724281 0.994460 -2.243841 2.990303 0.000000 0.000000 0.000000 1.941155 -1.305956 4.059074 -4.339479 -19.814132 7.721534 0.689813 -1.678895 1.254147 -6.779735 0.461730 0.452872 -71.556852 -18.361129 13.306575 1.695935 -18.081499 6.489697 0.896217 -2.598463 2.755483 13.115580 3.327961 4.176565 37.626438 20.030107 -33.024779 -8.698548 79.046821 -3.333307 0.000000 0.000000 -0.000000 -0.390407 12.105645 -11.355485 -1.923802 -28.809450 -11.156670 0.000000 -0.000000 -0.000000 1.876265 -23.420811 -8.872555 2.203776 7.847583 5.512563 
0.904119 -1.007853 -1.951810 -8.653235 62.475386 -3.055136 0.000000 -0.000000 0.000000 7.271317 -13.931820 -3.904228 1.084624 -2.202696 2.978255 0.000000 0.000000 0.000000 2.013429 -1.288009 4.075272 -4.075726 -19.851630 7.713142 0.756994 -1.641756 1.294030 -6.750152 0.343028 0.463456 -71.689169 -18.388033 13.105764 1.605586 -17.760099 6.357102 0.971017 -2.566197 2.842168 12.912127 3.248933 4.058610 36.190496 20.054048 -34.497882 -7.881990 77.720989 -2.480919 0.000000 0.000000 -0.000000 -0.336656 12.075094 -11.224513 -1.874617 -28.977516 -11.308903 0.000000 -0.000000 -0.000000 2.159242 -23.332004 -8.940783 1.555293 7.406744 5.664592 
0.836076 -1.028125 -2.005516 -8.485295 61.615568 -3.004411 0.000000 -0.000000 0.000000 7.616851 -13.714025 -4.084057 1.171440 -2.146080 2.953818 0.000000 0.000000 0.000000 2.087605 -1.265081 4.082190 -3.850010 -19.843747 7.596358 0.824358 -1.594655 1.325727 -6.726679 0.216044 0.472045 -71.812200 -18.414813 12.898047 1.519391 -17.451376 6.219213 1.047660 -2.525432 2.917648 12.770537 3.097058 3.962111 35.052937 20.030431 -35.575300 -7.114239 75.953714 -1.681738 0.000000 0.000000 -0.000000 -0.293658 12.004337 -11.099977 -1.830603 -29.112568 -11.443519 0.000000 -0.000000 -0.000000 2.430064 -23.262962 -8.980263 0.933992 6.978735 5.758429 
0.772396 -1.044680 -2.062368 -8.337461 60.840845 -2.977791 0.000000 -0.000000 0.000000 7.939443 -13.494317 -4.271072 1.261607 -2.080004 2.917509 0.000000 0.000000 0.000000 2.158862 -1.236943 4.080884 -3.664892 -19.769663 7.409688 0.892395 -1.540734 1.347789 -6.695660 0.075701 0.478708 -71.925278 -18.425941 12.679383 1.434713 -17.152632 6.081974 1.124246 -2.478731 2.984574 12.705668 2.845636 3.888167 34.213479 20.012915 -36.281722 -6.498304 73.858664 -1.037391 0.000000 0.000000 -0.000000 -0.254350 11.899336 -10.986397 -1.800015 -29.190944 -11.562899 0.000000 -0.000000 -0.000000 2.692743 -23.224023 -8.997089 0.325495 6.548662 5.807823 
0.714089 -1.057272 -2.122712 -8.197761 60.173005 -2.952901 0.000000 -0.000000 0.000000 8.239282 -13.257494 -4.451505 1.351875 -2.004627 2.870443 0.000000 0.000000 0.000000 2.227176 -1.204372 4.070233 -3.528982 -19.656924 7.176929 0.957666 -1.481009 1.364737 -6.669946 -0.061441 0.482512 -72.035924 -18.435392 12.452320 1.359291 -16.854077 5.960380 1.197266 -2.423376 3.042613 12.721978 2.504209 3.848799 33.751758 19.953186 -36.558885 -6.029744 71.705267 -0.548092 0.000000 0.000000 -0.000000 -0.210619 11.780110 -10.889994 -1.785263 -29.202603 -11.656555 0.000000 -0.000000 -0.000000 2.943265 -23.195354 -8.991545 -0.270284 6.113170 5.828959 
0.662634 -1.065817 -2.186327 -8.074977 59.642256 -2.948389 0.000000 -0.000000 -0.000000 8.498031 -13.032239 -4.620611 1.437664 -1.924207 2.816270 0.000000 0.000000 0.000000 2.287013 -1.166255 4.051991 -3.445747 -19.520541 6.921827 1.019060 -1.418610 1.384811 -6.649323 -0.208583 0.484619 -72.122994 -18.452523 12.238058 1.291199 -16.558977 5.851782 1.263883 -2.366506 3.092923 12.794780 2.179186 3.837682 33.610198 19.844420 -36.420277 -5.663443 69.365095 -0.170481 0.000000 0.000000 -0.000000 -0.160885 11.657927 -10.822736 -1.795772 -29.134282 -11.695179 0.000000 -0.000000 -0.000000 3.181151 -23.148509 -8.970334 -0.807163 5.704170 5.836021 
